Patient4_TMGait_0pt5_02_left_08_GRF.mot
version=1
nRows=71
nColumns=19
inDegrees=no
endheader
time	F1x	F1y	F1z	M1x	M1y	M1z	F2x	F2y	F2z	M2x	M2y	M2z	EC1x	EC1y	EC1z	EC2x	EC2y	EC2z
9.82	17.4262	-1.5069	9.6306	-1.8399	1.1597	3.7882	-44.21	723.7403	-44.1952	272.1628	49.6802	594.6175	-0.0592	0.0182	-0.0073	-0.0462	0.0165	0.9585
9.8328	11.6169	-0.65499	6.6187	-1.3907	0.68321	2.8141	-38.8348	718.9733	-44.7121	270.7482	48.4114	586.9056	-0.0592	0.0182	-0.0073	-0.0462	0.0165	0.9585
9.8456	6.7233	0.093462	4.0311	-1.0098	0.29033	2.0599	-33.401	715.5168	-44.819	269.735	46.6327	579.6197	-0.0592	0.0182	-0.0073	-0.0462	0.0165	0.9585
9.8584	3.0091	0.69882	2.0299	-0.72505	-0.0012424	1.5555	-28.206	714.2904	-44.5578	269.4507	44.4727	573.6584	-0.0592	0.0182	-0.0073	-0.0462	0.0165	0.9585
9.8711	0.45183	1.1468	0.63027	-0.53541	-0.20302	1.2592	-23.4096	715.8641	-44.0647	270.1135	42.1167	569.6167	-0.0592	0.0182	-0.0073	-0.0462	0.0165	0.9585
9.8839	-1.1356	1.4531	-0.24832	-0.42641	-0.33668	1.1233	-19.0489	720.3345	-43.506	271.7723	39.7456	567.6804	-0.0592	0.0182	-0.0073	-0.0462	0.0165	0.9585
9.8967	-1.9871	1.6306	-0.715	-0.37415	-0.42999	1.085	-15.0913	727.3278	-43.0285	274.2998	37.5002	567.6454	-0.0592	0.0182	-0.0073	-0.0462	0.0165	0.9585
9.9095	-2.338	1.6881	-0.88707	-0.35309	-0.50255	1.0765	-11.4741	736.1167	-42.7405	277.4315	35.4748	569.0234	-0.0592	0.0182	-0.0073	-0.0462	0.0165	0.9585
9.9223	-2.4016	1.6285	-0.86287	-0.33601	-0.5748	1.0412	-8.1151	745.724	-42.6972	280.8053	33.7125	571.1139	-0.0592	0.0182	-0.0073	-0.0462	0.0165	0.9585
9.9351	-2.3196	1.4341	-0.72272	-0.29233	-0.65239	0.91439	-4.9558	755.0659	-42.9119	284.0164	32.2267	573.1471	-0.0592	0.0182	-0.0073	-0.0462	0.0165	0.9585
9.9479	-2.1971	1.0689	-0.52748	-0.19154	-0.73822	0.6408	-1.9376	763.074	-43.3514	286.6667	30.9883	574.3409	-0.0592	0.0182	-0.0073	-0.0462	0.0165	0.9585
9.9606	-2.0822	0.48323	-0.31548	-0.0049604	-0.83195	0.15824	0.95205	768.8887	-43.9563	288.4326	29.9553	574.0948	-0.0592	0.0182	-0.0073	-0.0462	0.0165	0.9585
9.9734	-1.9987	-0.3561	-0.12006	0.28839	-0.92159	-0.56579	3.7219	771.9197	-44.6583	289.0953	29.0777	572.0049	-0.0592	0.0182	-0.0073	-0.0462	0.0165	0.9585
9.9862	-1.9105	-1.4626	0.036915	0.6965	-0.9793	-1.5473	6.3343	771.9263	-45.4111	288.5664	28.3309	567.9478	-0.0592	0.0182	-0.0073	-0.0462	0.0165	0.9585
9.999	-1.7588	-2.7933	0.1287	1.2009	-0.95948	-2.7397	8.7374	769.0708	-46.1819	286.9111	27.6997	562.0924	-0.0592	0.0182	-0.0073	-0.0462	0.0165	0.9585
10.0118	-1.4563	-4.2117	0.12988	1.744	-0.80595	-4.0194	10.8931	763.8973	-46.9664	284.3419	27.1864	554.8417	-0.0592	0.0182	-0.0073	-0.0462	0.0165	0.9585
10.0246	-0.87335	-5.4267	0.0032477	2.2083	-0.43741	-5.1259	12.7916	757.2273	-47.7707	281.1785	26.7891	546.7589	-0.0592	0.0182	-0.0073	-0.0462	0.0165	0.9585
10.0374	0.11658	-5.952	-0.28924	2.4016	0.23041	-5.6169	14.4785	749.9797	-48.6164	277.7833	26.4986	538.4428	-0.0592	0.0182	-0.0073	-0.0462	0.0165	0.9585
10.0501	1.6385	-5.0735	-0.79886	2.0421	1.2912	-4.8618	16.0255	743.0371	-49.5182	274.5044	26.289	530.4762	-0.0592	0.0182	-0.0073	-0.0462	0.0165	0.9585
10.0629	3.7553	-1.8158	-1.5706	0.75003	2.8108	-1.9734	17.5397	737.0657	-50.481	271.6092	26.1213	523.2734	-0.0592	0.0182	-0.0073	-0.0462	0.0165	0.9585
10.0757	6.4458	5.0083	-2.6355	-1.9365	4.8054	4.1265	19.1074	732.4113	-51.4842	269.2432	25.9496	517.0408	-0.0592	0.0182	-0.0073	-0.0462	0.0165	0.9585
10.0885	9.4827	16.6749	-3.9633	-6.5124	7.16	14.6045	20.8035	729.0096	-52.476	267.3991	25.7214	511.6974	-0.0592	0.0182	-0.0073	-0.0462	0.0165	0.9585
10.1013	12.3678	34.3036	-5.4377	-13.411	9.5733	30.4957	22.636	726.4241	-53.3481	265.9272	25.3745	506.9445	-0.0592	0.0182	-0.0073	-0.0462	0.0165	0.9585
10.1141	14.2872	58.5118	-6.8561	-22.8667	11.5417	52.4137	24.557	723.8891	-53.9536	264.5528	24.8451	502.2794	-0.0592	0.0182	-0.0073	-0.0462	0.0165	0.9585
10.1269	14.2517	88.9941	-7.9568	-34.7479	12.4414	80.146	26.472	720.4138	-54.1167	262.9157	24.0642	497.064	-0.0592	0.0182	-0.0073	-0.0462	0.0165	0.9585
10.1396	11.7029	124.3377	-8.3569	-48.4785	11.7102	112.473	28.2388	714.8871	-53.68	260.6078	22.9876	490.6062	-0.0592	0.0182	-0.0073	-0.0462	0.0165	0.9585
10.1524	7.2067	161.9194	-7.6806	-62.9985	9.2224	146.9992	29.739	706.1605	-52.5272	257.207	21.5845	482.1811	-0.0592	0.0182	-0.0073	-0.0462	0.0165	0.9585
10.1652	2.0363	197.4814	-5.5241	-76.6306	5.1046	179.7158	30.8873	693.1573	-50.6409	252.3135	19.8796	471.1148	-0.0592	0.0182	-0.0073	-0.0462	0.0165	0.9585
10.178	-2.4648	226.2517	-2.0526	-87.5545	0.059219	206.0866	31.6746	675.0325	-48.0881	245.6134	17.9228	456.8503	-0.0592	0.0182	-0.0073	-0.0462	0.0165	0.9585
10.1908	-5.599	245.7845	2.0236	-94.8683	-4.9487	223.7638	32.1358	651.4875	-45.0375	236.9864	15.814	439.1997	-0.0592	0.0182	-0.0073	-0.0462	0.0165	0.9585
10.2036	-7.4695	257.1426	6.0717	-99.0272	-9.3645	233.6911	32.3535	622.8589	-41.7175	226.5439	13.6693	418.3695	-0.0592	0.0182	-0.0073	-0.0462	0.0165	0.9585
10.2164	-8.6823	264.0529	9.6354	-101.5082	-13.0024	239.2816	32.4254	589.991	-38.3589	214.581	11.5943	394.9088	-0.0592	0.0182	-0.0073	-0.0462	0.0165	0.9585
10.2291	-9.8577	271.1901	12.5292	-104.1377	-15.946	244.7533	32.4445	553.8969	-35.0751	201.4611	9.6168	369.4789	-0.0592	0.0182	-0.0073	-0.0462	0.0165	0.9585
10.2419	-11.4299	282.7511	14.7803	-108.5414	-18.3983	253.8586	32.4359	515.436	-31.8417	187.4983	7.7055	342.6613	-0.0592	0.0182	-0.0073	-0.0462	0.0165	0.9585
10.2547	-13.5135	301.7056	16.633	-115.8487	-20.6357	269.1624	32.3395	475.1533	-28.5332	172.8924	5.7973	314.8367	-0.0592	0.0182	-0.0073	-0.0462	0.0165	0.9585
10.2675	-16.0076	329.5409	18.4576	-126.5908	-22.9494	291.9025	32.0008	433.2551	-25.048	157.7159	3.882	286.1703	-0.0592	0.0182	-0.0073	-0.0462	0.0165	0.9585
10.2803	-18.6451	366.1802	20.6904	-140.6881	-25.6162	321.9144	31.1919	389.7434	-21.363	141.9611	2.0195	256.6988	-0.0592	0.0182	-0.0073	-0.0462	0.0165	0.9585
10.2931	-21.1499	410.2712	23.7554	-157.5618	-28.8904	357.9335	29.6908	344.6731	-17.5745	125.6344	0.34401	226.4752	-0.0592	0.0182	-0.0073	-0.0462	0.0165	0.9585
10.3059	-23.308	459.596	27.983	-176.3126	-32.968	397.9588	27.3158	298.3918	-13.8669	108.8482	-0.97385	195.7277	-0.0592	0.0182	-0.0073	-0.0462	0.0165	0.9585
10.3186	-25.0018	511.7206	33.4506	-195.983	-37.8649	439.8313	24.0049	251.7302	-10.4566	91.8944	-1.7891	164.9767	-0.0592	0.0182	-0.0073	-0.0462	0.0165	0.9585
10.3314	-26.1699	564.5298	39.9381	-215.7663	-43.3686	481.7029	19.901	206.0286	-7.5416	75.2555	-2.0404	135.0387	-0.0592	0.0182	-0.0073	-0.0462	0.0165	0.9585
10.3442	-26.7503	616.305	46.9608	-235.0406	-49.0471	522.0959	15.3381	162.9335	-5.2251	59.5337	-1.8002	106.9108	-0.0592	0.0182	-0.0073	-0.0462	0.0165	0.9585
10.357	-26.7171	665.5718	53.9288	-253.2935	-54.3957	559.797	10.7752	123.9957	-3.5022	45.3028	-1.2373	81.5266	-0.0592	0.0182	-0.0073	-0.0462	0.0165	0.9585
10.3698	-26.0308	710.8884	60.3138	-270.0265	-58.9712	593.6355	6.6445	90.3073	-2.2704	32.9752	-0.55623	59.5586	-0.0592	0.0182	-0.0073	-0.0462	0.0165	0.9585
10.3826	-24.7143	750.7887	65.7551	-284.7233	-62.496	622.479	3.2291	62.3749	-1.4142	22.7493	0.085031	41.3163	-0.0592	0.0182	-0.0073	-0.0462	0.0165	0.9585
10.3954	-22.7949	783.9112	70.0785	-296.8998	-64.8483	645.2993	0.66979	40.2141	-0.82771	14.6387	0.58079	26.8123	-0.0592	0.0182	-0.0073	-0.0462	0.0165	0.9585
10.4081	-20.3312	809.2335	73.2525	-306.1899	-66.0282	661.3868	-0.99029	23.5033	-0.44737	8.5264	0.88538	15.8626	-0.0592	0.0182	-0.0073	-0.0462	0.0165	0.9585
10.4209	-17.3827	826.167	75.3046	-312.3869	-66.0854	670.3892	-1.8047	11.6946	-0.21869	4.2105	0.98479	8.1232	-0.0592	0.0182	-0.0073	-0.0462	0.0165	0.9585
10.4337	-14.0133	834.6428	76.305	-315.4729	-65.11	672.3738	-1.9729	4.0819	-0.10502	1.4302	0.93036	3.1357	-0.0592	0.0182	-0.0073	-0.0462	0.0165	0.9585
10.4465	-10.2929	835.148	76.3239	-315.634	-63.1951	667.8553	-1.7681	-0.20075	-0.06311	-0.13227	0.79136	0.33767	-0.0592	0.0182	-0.0073	-0.0462	0.0165	0.9585
10.4593	-6.2905	828.6904	75.4651	-313.2488	-60.4661	657.7473	-1.39	-2.0876	-0.071149	-0.81775	0.62918	-0.88025	-0.0592	0.0182	-0.0073	-0.0462	0.0165	0.9585
10.4721	-2.1103	816.7291	73.8575	-308.859	-57.0741	643.3212	-0.96792	-2.4131	-0.098115	-0.93124	0.47035	-1.0654	-0.0592	0.0182	-0.0073	-0.0462	0.0165	0.9585
10.4849	2.1339	800.9644	71.6945	-303.0941	-53.2288	626.01	-0.57082	-1.8478	-0.1355	-0.71735	0.33594	-0.66622	-0.0592	0.0182	-0.0073	-0.0462	0.0165	0.9585
10.4976	6.2917	783.1775	69.1931	-296.6132	-49.1685	607.2849	-0.24161	-0.87488	-0.17069	-0.35178	0.22743	0.0010522	-0.0592	0.0182	-0.0073	-0.0462	0.0165	0.9585
10.5104	10.2463	765.0949	66.5818	-290.0553	-45.1271	588.5084	0.008731	0.18403	-0.20771	0.048559	0.1533	0.72168	-0.0592	0.0182	-0.0073	-0.0462	0.0165	0.9585
10.5232	13.8908	748.27	64.0472	-283.9969	-41.2934	570.8829	0.17724	1.1549	-0.24247	0.41728	0.11169	1.3849	-0.0592	0.0182	-0.0073	-0.0462	0.0165	0.9585
10.536	17.1811	733.9382	61.7442	-278.9007	-37.8033	555.3227	0.27788	1.9354	-0.27813	0.71566	0.10086	1.9151	-0.0592	0.0182	-0.0073	-0.0462	0.0165	0.9585
10.5488	20.1195	722.9687	59.7615	-275.0922	-34.7147	542.4388	0.32039	2.4839	-0.31655	0.92729	0.11666	2.2812	-0.0592	0.0182	-0.0073	-0.0462	0.0165	0.9585
10.5616	22.7422	715.8011	58.1416	-272.7342	-32.0356	532.5062	0.32308	2.777	-0.36507	1.0432	0.15944	2.4602	-0.0592	0.0182	-0.0073	-0.0462	0.0165	0.9585
10.5744	25.1199	712.4565	56.8761	-271.8308	-29.7225	525.4813	0.29904	2.7826	-0.42222	1.0509	0.2229	2.4157	-0.0592	0.0182	-0.0073	-0.0462	0.0165	0.9585
10.5871	27.3303	712.5997	55.9385	-272.2479	-27.7192	521.0756	0.25497	2.4523	-0.48865	0.93151	0.30406	2.0942	-0.0592	0.0182	-0.0073	-0.0462	0.0165	0.9585
10.5999	29.4681	715.6291	55.2834	-273.7497	-25.9501	518.8064	0.20276	1.7204	-0.5613	0.65914	0.39696	1.4233	-0.0592	0.0182	-0.0073	-0.0462	0.0165	0.9585
10.6127	31.6204	720.8188	54.8717	-276.0481	-24.3493	518.1304	0.14322	0.52544	-0.63045	0.20974	0.49156	0.34828	-0.0592	0.0182	-0.0073	-0.0462	0.0165	0.9585
10.6255	33.8824	727.3862	54.6639	-278.8301	-22.8545	518.482	0.091086	-1.1735	-0.68372	-0.43185	0.57049	-1.1712	-0.0592	0.0182	-0.0073	-0.0462	0.0165	0.9585
10.6383	36.3032	734.5661	54.6384	-281.7858	-21.4375	519.3528	0.047781	-3.3375	-0.70255	-1.2521	0.61294	-3.1098	-0.0592	0.0182	-0.0073	-0.0462	0.0165	0.9585
10.6511	38.898	741.6492	54.7784	-284.6242	-20.0892	520.28	0.036806	-5.8075	-0.65827	-2.1889	0.58203	-5.3481	-0.0592	0.0182	-0.0073	-0.0462	0.0165	0.9585
10.6639	41.6103	747.9965	55.085	-287.0751	-18.8415	520.879	0.081864	-8.2094	-0.50629	-3.0979	0.42669	-7.5498	-0.0592	0.0182	-0.0073	-0.0462	0.0165	0.9585
10.6766	44.3264	752.9654	55.5579	-288.8685	-17.7415	520.7802	0.22998	-9.8838	-0.19637	-3.7239	0.087717	-9.12	-0.0592	0.0182	-0.0073	-0.0462	0.0165	0.9585
10.6894	46.8767	755.8638	56.1856	-289.7207	-16.8501	519.6027	0.53171	-9.7832	0.32879	-3.6648	-0.50019	-9.1021	-0.0592	0.0182	-0.0073	-0.0462	0.0165	0.9585
10.7022	49.0501	755.8905	56.917	-289.3189	-16.2181	516.9178	1.042	-6.4191	1.1155	-2.3527	-1.3969	-6.1365	-0.0592	0.0182	-0.0073	-0.0462	0.0165	0.9585
10.715	50.6535	752.2169	57.6536	-287.3485	-15.8619	512.2595	1.8085	2.1357	2.1842	0.94541	-2.636	1.5382	-0.0592	0.0182	-0.0073	-0.0462	0.0165	0.9585
